<?xml version="1.0" encoding="utf-8"?>
<!-- Generator: Adobe Illustrator 24.1.0, SVG Export Plug-In . SVG Version: 6.00 Build 0)  -->
<svg version="1.1" id="Layer_1" xmlns="http://www.w3.org/2000/svg" xmlns:xlink="http://www.w3.org/1999/xlink" x="0px" y="0px"
	 viewBox="0 0 512 512" style="enable-background:new 0 0 512 512;" xml:space="preserve">
<style type="text/css">
	.st0{fill:#FCFCFC;}
</style>
<path class="st0" d="M499.8,426.7l-382.5-0.1c-29.4,0-53.3-23.9-53.3-53.3V160c0-5.9-4.8-10.7-10.7-10.7H10.7
	c-5.9,0-10.7-4.8-10.7-10.7S4.8,128,10.7,128h42.7c17.6,0,32,14.4,32,32v213.3c0,17.6,14.4,32,32,32l382.5,0.1
	c5.9,0,10.7,4.8,10.7,10.7C510.5,421.9,505.7,426.7,499.8,426.7z"/>
<path class="st0" d="M192,512c-23.5,0-42.7-19.1-42.7-42.7s19.1-42.7,42.7-42.7s42.7,19.1,42.7,42.7S215.5,512,192,512z M192,448
	c-11.8,0-21.3,9.6-21.3,21.3s9.6,21.3,21.3,21.3s21.3-9.6,21.3-21.3S203.8,448,192,448z"/>
<path class="st0" d="M405.3,512c-23.5,0-42.7-19.1-42.7-42.7s19.1-42.7,42.7-42.7s42.7,19.1,42.7,42.7S428.9,512,405.3,512z
	 M405.3,448c-11.8,0-21.3,9.6-21.3,21.3s9.6,21.3,21.3,21.3s21.3-9.6,21.3-21.3S417.1,448,405.3,448z"/>
<path class="st0" d="M288,384H117.3c-5.9,0-10.7-4.8-10.7-10.7V10.7c0-5.9,4.8-10.7,10.7-10.7H288c5.9,0,10.7,4.8,10.7,10.7v362.7
	C298.7,379.2,293.9,384,288,384z M128,362.7h149.3V21.3H128V362.7z"/>
<path class="st0" d="M480,384H288c-5.9,0-10.7-4.8-10.7-10.7V202.7c0-5.9,4.8-10.7,10.7-10.7h192c5.9,0,10.7,4.8,10.7,10.7v170.7
	C490.7,379.2,485.9,384,480,384z M298.7,362.7h170.7V213.3H298.7V362.7z"/>
<path class="st0" d="M458.7,213.3h-128c-5.9,0-10.7-4.8-10.7-10.7V96c0-5.9,4.8-10.7,10.7-10.7h128c5.9,0,10.7,4.8,10.7,10.7v106.7
	C469.3,208.6,464.6,213.3,458.7,213.3z M341.3,192H448v-85.3H341.3V192z"/>
</svg>
