<?xml version="1.0" standalone="no"?>
<!DOCTYPE svg PUBLIC "-//W3C//DTD SVG 20010904//EN"
 "http://www.w3.org/TR/2001/REC-SVG-20010904/DTD/svg10.dtd">
<svg version="1.0" xmlns="http://www.w3.org/2000/svg"
 width="1280.000000pt" height="738.000000pt" viewBox="0 0 1280.000000 738.000000"
 preserveAspectRatio="xMidYMid meet">
<metadata>
Created by potrace 1.15, written by Peter Selinger 2001-2017
</metadata>
<g transform="translate(0.000000,738.000000) scale(0.100000,-0.100000)"
fill="#000000" stroke="none">
<path d="M11461 7364 c-81 -22 -150 -62 -213 -126 -70 -70 -114 -159 -130
-262 l-12 -76 -1560 -1213 c-859 -666 -1574 -1224 -1591 -1239 l-30 -26 0
-255 c0 -273 3 -294 51 -316 31 -14 665 34 704 53 21 10 1437 1286 2108 1898
89 82 162 147 162 145 0 -3 -219 -445 -486 -983 -357 -719 -486 -988 -486
-1014 0 -48 35 -76 104 -83 139 -16 717 -49 741 -43 15 3 34 17 42 30 8 13 42
106 74 207 116 361 570 1772 692 2151 l79 247 57 26 c31 14 57 24 58 23 1 -2
28 -176 59 -388 202 -1371 246 -1675 252 -1762 8 -111 20 -99 -115 -121 l-73
-12 -29 -70 c-15 -39 -28 -76 -28 -82 -1 -10 21 -13 79 -13 l80 0 0 -57 c0
-75 26 -244 47 -308 27 -85 74 -176 111 -217 54 -60 142 -100 229 -106 64 -4
79 -1 128 22 96 48 168 161 168 266 0 62 -25 126 -87 223 -58 91 -67 76 -51
-88 14 -147 -28 -214 -139 -223 -48 -4 -56 -1 -88 26 -65 58 -115 189 -131
345 -2 26 -1 47 2 47 4 0 69 -38 146 -85 124 -77 165 -93 165 -67 0 5 -59 72
-131 150 -71 78 -128 146 -125 151 3 5 35 44 71 87 35 43 64 79 62 80 -1 1
-55 -7 -120 -18 -64 -12 -120 -18 -123 -15 -7 6 -17 137 -34 422 -30 533 -42
911 -47 1595 -5 731 -6 746 -26 783 -27 48 -208 214 -274 249 -102 56 -232 72
-342 42z"/>
<path d="M7245 7125 l-25 -24 0 -1591 0 -1591 25 -24 24 -25 274 0 274 0 27
25 26 24 0 1589 0 1589 -25 27 -24 26 -276 0 -276 0 -24 -25z"/>
<path d="M4141 6917 c-17 -4 -41 -22 -54 -40 -58 -77 -1729 -2502 -1742 -2527
-19 -37 -19 -55 0 -84 23 -34 55 -44 185 -56 63 -5 367 -32 675 -60 308 -28
709 -64 890 -80 182 -16 683 -61 1115 -100 432 -39 983 -88 1224 -110 523 -48
519 -47 550 -17 23 23 24 29 30 278 12 532 25 2470 16 2494 -21 54 28 48
-1458 183 -895 81 -1412 125 -1431 119z m1416 -641 c502 -29 915 -55 918 -57
3 -3 1 -163 -5 -355 -5 -192 -14 -560 -20 -819 -6 -258 -13 -507 -16 -552 -5
-77 -7 -83 -27 -83 -12 0 -173 13 -357 30 -345 30 -628 56 -1020 90 -124 11
-475 43 -780 70 -305 27 -643 56 -750 65 -107 9 -203 19 -213 23 -14 6 83 148
565 830 l583 822 105 -6 c58 -3 516 -29 1017 -58z"/>
<path d="M1990 3949 c-577 -21 -1004 -87 -1209 -185 -159 -77 -263 -229 -317
-464 -24 -103 -29 -381 -11 -540 46 -389 193 -900 404 -1395 78 -183 100 -221
137 -237 23 -10 99 -13 296 -13 307 0 368 10 487 76 99 54 186 145 314 325
223 313 364 392 684 381 163 -5 231 -21 360 -81 121 -57 217 -132 422 -329
170 -163 257 -234 341 -276 74 -38 337 -91 597 -123 186 -22 739 -16 1140 12
424 30 890 32 1115 7 193 -22 202 -22 234 9 l26 27 0 1247 0 1248 -31 26 c-17
14 -38 26 -47 26 -9 0 -55 4 -102 10 -118 13 -804 76 -1095 100 -1538 127
-2892 181 -3745 149z"/>
<path d="M9160 3764 c-36 -2 -189 -8 -340 -14 -265 -10 -951 -47 -1400 -74
-231 -14 -262 -22 -274 -70 -5 -20 -21 -1278 -28 -2145 l-2 -323 27 -24 28
-24 1030 0 c939 0 1033 1 1062 17 68 35 145 102 355 306 241 236 350 323 487
391 130 65 224 87 360 87 126 0 184 -10 278 -45 137 -51 223 -122 400 -331
195 -230 348 -374 451 -427 72 -37 290 -35 413 3 68 21 63 -69 63 1249 l0
1197 -25 23 c-26 24 -53 31 -315 75 -166 28 -479 69 -655 85 -396 36 -545 42
-1190 44 -363 2 -689 2 -725 0z"/>
<path d="M12160 1825 l-1 -695 48 6 c295 32 381 67 466 186 94 132 142 315
120 464 -27 185 -178 376 -514 648 -59 47 -109 86 -112 86 -3 0 -6 -313 -7
-695z"/>
<path d="M265 2244 c-105 -183 -173 -326 -218 -458 -36 -109 -41 -131 -41
-221 -1 -80 4 -113 22 -167 50 -144 193 -311 316 -369 87 -41 194 -41 369 2
119 30 127 34 121 53 -4 12 -92 239 -196 506 -273 697 -299 764 -302 768 -2 2
-34 -49 -71 -114z"/>
<path d="M10315 1773 c-107 -15 -265 -78 -362 -144 -165 -113 -290 -293 -344
-494 -28 -105 -31 -298 -7 -401 77 -317 317 -562 633 -645 103 -26 288 -29
390 -5 216 51 406 178 526 352 42 61 104 195 124 269 26 96 31 275 11 375 -72
351 -330 612 -678 684 -71 15 -219 19 -293 9z"/>
<path d="M2693 1706 c-242 -46 -436 -173 -572 -374 -50 -74 -80 -139 -112
-242 -20 -65 -24 -96 -24 -230 0 -149 1 -159 33 -256 43 -131 105 -236 195
-331 83 -88 157 -140 271 -194 123 -57 207 -74 366 -73 116 1 147 5 225 28
296 89 521 322 596 616 29 111 31 282 5 394 -74 323 -315 569 -639 650 -93 23
-254 29 -344 12z"/>
</g>
</svg>
